<?xml version="1.0"?>
<svg width="640" height="512" xmlns="http://www.w3.org/2000/svg" xmlns:svg="http://www.w3.org/2000/svg">
 <!--!Font Awesome Free 6.5.2 by @fontawesome - https://fontawesome.com License - https://fontawesome.com/license/free Copyright 2024 Fonticons, Inc.-->
 <g class="layer">
  <title>Layer 1</title>
  <path d="m32,32c17.7,0 32,14.3 32,32l0,256l224,0l0,-160c0,-17.7 14.3,-32 32,-32l224,0c53,0 96,43 96,96l0,224c0,17.7 -14.3,32 -32,32s-32,-14.3 -32,-32l0,-32l-224,0l-32,0l-256,0l0,32c0,17.7 -14.3,32 -32,32s-32,-14.3 -32,-32l0,-384c0,-17.7 14.3,-32 32,-32zm144,96a80,80 0 1 1 0,160a80,80 0 1 1 0,-160z" fill="#ffffff" id="svg_1"/>
 </g>
</svg>