<?xml version="1.0"?>
<svg width="512" height="512" xmlns="http://www.w3.org/2000/svg" xmlns:svg="http://www.w3.org/2000/svg">
 <!--!Font Awesome Free 6.5.2 by @fontawesome - https://fontawesome.com License - https://fontawesome.com/license/free Copyright 2024 Fonticons, Inc.-->
 <g class="layer">
  <title>Layer 1</title>
  <path d="m135.2,117.4l-26.1,74.6l293.8,0l-26.1,-74.6c-4.5,-12.8 -16.6,-21.4 -30.2,-21.4l-181.2,0c-13.6,0 -25.7,8.6 -30.2,21.4zm-95.6,79.4l35.2,-100.5c13.5,-38.5 49.8,-64.3 90.6,-64.3l181.2,0c40.8,0 77.1,25.8 90.6,64.3l35.2,100.5c23.2,9.6 39.6,32.5 39.6,59.2l0,144l0,48c0,17.7 -14.3,32 -32,32l-32,0c-17.7,0 -32,-14.3 -32,-32l0,-48l-320,0l0,48c0,17.7 -14.3,32 -32,32l-32,0c-17.7,0 -32,-14.3 -32,-32l0,-48l0,-144c0,-26.7 16.4,-49.6 39.6,-59.2zm88.4,91.2a32,32 0 1 0 -64,0a32,32 0 1 0 64,0zm288,32a32,32 0 1 0 0,-64a32,32 0 1 0 0,64z" fill="#ffffff" id="svg_1"/>
 </g>
</svg>