<?xml version="1.0"?>
<svg width="448" height="512" xmlns="http://www.w3.org/2000/svg" xmlns:svg="http://www.w3.org/2000/svg">
 <!--!Font Awesome Free 6.5.2 by @fontawesome - https://fontawesome.com License - https://fontawesome.com/license/free Copyright 2024 Fonticons, Inc.-->
 <g class="layer">
  <title>Layer 1</title>
  <path d="m24,0c-13.3,0 -24,10.7 -24,24s10.7,24 24,24l8,0l0,148.9c-1.9,1.4 -3.8,2.9 -5.6,4.4c-15.5,13.2 -26.4,31.6 -26.4,54.7c0,46.9 14.3,84.1 37,112.5c14.2,17.7 31.1,31.3 48.5,41.8l-19.9,59.6c-3.3,9.8 -1.6,20.5 4.4,28.8s15.7,13.3 26,13.3l256,0c10.3,0 19.9,-4.9 26,-13.3s7.7,-19.1 4.4,-28.8l-19.8,-59.5c17.4,-10.5 34.3,-24.1 48.5,-41.8c22.7,-28.4 37,-65.5 37,-112.5c0,-23.1 -10.9,-41.5 -26.4,-54.6c-1.8,-1.5 -3.7,-3 -5.6,-4.4l0,-149.1l8,0c13.3,0 24,-10.7 24,-24s-10.7,-24 -24,-24l-400.1,0zm360,256.3c0,1 -0.3,2.6 -3.8,5.6c-4.8,4.1 -14,9 -29.3,13.4c-30.4,8.7 -74.8,12.7 -126.9,12.7s-96.5,-4 -126.9,-12.8c-15.3,-4.4 -24.5,-9.3 -29.3,-13.4c-3.5,-3 -3.8,-4.6 -3.8,-5.6l0,-0.3l0,-0.1c0,-1 0,-2.5 3.8,-5.8c4.8,-4.1 14,-9 29.3,-13.4c30.4,-8.6 74.8,-12.6 126.9,-12.6s96.5,4 126.9,12.8c15.3,4.4 24.5,9.3 29.3,13.4c3.8,3.2 3.8,4.8 3.8,5.8l0,0.1l0,0.3l0,-0.1zm-55.8,127.7l-0.2,0.5l0,-0.5l0.2,0zm-216.2,-320l32,0c8.8,0 16,7.2 16,16s-7.2,16 -16,16l-32,0c-8.8,0 -16,-7.2 -16,-16s7.2,-16 16,-16z" fill="#ffffff" id="svg_1"/>
 </g>
</svg>